<!DOCTYPE svg PUBLIC "-//W3C//DTD SVG 1.1//EN" "http://www.w3.org/Graphics/SVG/1.1/DTD/svg11.dtd">
<!-- Uploaded to: SVG Repo, www.svgrepo.com, Transformed by: SVG Repo Mixer Tools -->
<svg fill="#B9E39E" height="222px" width="222px" version="1.1" id="Layer_1" xmlns="http://www.w3.org/2000/svg" xmlns:xlink="http://www.w3.org/1999/xlink" viewBox="0 0 512 512" xml:space="preserve" stroke="#B9E39E">
<g id="SVGRepo_bgCarrier" stroke-width="0"/>
<g id="SVGRepo_tracerCarrier" stroke-linecap="round" stroke-linejoin="round"/>
<g id="SVGRepo_iconCarrier"> <g> <g> <path d="M495.304,311.652h-16.696V50.087C478.609,22.469,456.14,0,428.522,0H83.478C55.86,0,33.391,22.469,33.391,50.087v261.565 H16.696C7.475,311.652,0,319.127,0,328.348v166.956C0,504.525,7.475,512,16.696,512h478.609c9.22,0,16.696-7.475,16.696-16.696 V328.348C512,319.127,504.525,311.652,495.304,311.652z M66.783,50.087c0-9.206,7.49-16.696,16.696-16.696h345.043 c9.206,0,16.696,7.49,16.696,16.696v261.565H66.783V50.087z M478.609,478.609H33.391V345.043c11.558,0,433.753,0,445.217,0 V478.609z"/> </g> </g> <g> <g> <path d="M294.957,378.435c-9.22,0-16.696,7.475-16.696,16.696v33.391c0,9.22,7.475,16.696,16.696,16.696 s16.696-7.475,16.696-16.696V395.13C311.652,385.91,304.177,378.435,294.957,378.435z"/> </g> </g> <g> <g> <path d="M361.739,378.435c-9.22,0-16.696,7.475-16.696,16.696v33.391c0,9.22,7.475,16.696,16.696,16.696 s16.696-7.475,16.696-16.696V395.13C378.435,385.91,370.96,378.435,361.739,378.435z"/> </g> </g> <g> <g> <path d="M428.522,378.435c-9.22,0-16.696,7.475-16.696,16.696v33.391c0,9.22,7.475,16.696,16.696,16.696 s16.696-7.475,16.696-16.696V395.13C445.217,385.91,437.742,378.435,428.522,378.435z"/> </g> </g> <g> <g> <path d="M228.174,395.13H83.478c-9.22,0-16.696,7.475-16.696,16.696c0,9.22,7.475,16.696,16.696,16.696h144.696 c9.22,0,16.696-7.475,16.696-16.696C244.87,402.606,237.394,395.13,228.174,395.13z"/> </g> </g> <g> <g> <path d="M395.13,66.783H116.87c-9.22,0-16.696,7.475-16.696,16.696v178.087c0,9.22,7.475,16.696,16.696,16.696H395.13 c9.22,0,16.696-7.475,16.696-16.696V83.478C411.826,74.258,404.351,66.783,395.13,66.783z M378.435,244.87h-244.87V100.174h244.87 V244.87z"/> </g> </g> </g>
</svg>