<svg width="48" height="48" viewBox="0 0 48 48" fill="none" xmlns="http://www.w3.org/2000/svg">
<g clip-path="url(#clip0_89_30)">
<mask id="path-1-inside-1_89_30" fill="white">
<path fill-rule="evenodd" clip-rule="evenodd" d="M24 0C10.7452 0 0 10.7452 0 24C0 37.2548 10.7452 48 24 48C37.2548 48 48 37.2548 48 24C48 10.7452 37.2548 0 24 0ZM22.9449 17.6631C23.4281 18.3269 23.6704 19.1198 23.6704 20.0449C23.6704 20.9968 23.4281 21.7645 22.9389 22.3436C22.6649 22.6673 22.2631 22.9643 21.7317 23.2316C22.5385 23.5226 23.1466 23.9814 23.5605 24.6096C23.9699 25.2362 24.1761 25.9994 24.1761 26.8963C24.1761 27.8214 23.9413 28.6515 23.4702 29.3851C23.1722 29.8706 22.7989 30.2805 22.3504 30.6131C21.8461 30.9947 21.2516 31.2546 20.5637 31.3971C19.8758 31.5382 19.1323 31.6065 18.3285 31.6065H11.2V16H18.8448C20.7744 16.0282 22.1396 16.5821 22.9449 17.6631ZM27.5583 18.6699H34.3376V16.7276H27.5583V18.6699ZM29.1643 22.9078C28.7323 23.3474 28.4599 23.9428 28.3485 24.6942H33.6211C33.5654 23.8923 33.2915 23.2865 32.8068 22.8692C32.3161 22.4549 31.7126 22.2485 30.9901 22.2485C30.2074 22.2485 29.5963 22.4683 29.1643 22.9078ZM35.76 22.008C35.2302 21.2299 34.5574 20.6597 33.74 20.3003C32.9242 19.9395 32.0076 19.7583 30.9886 19.7583C29.2742 19.7583 27.8819 20.2944 26.8057 21.3591C25.7325 22.4267 25.1951 23.9606 25.1951 25.9608C25.1951 28.0932 25.7882 29.6345 26.9818 30.5804C28.1694 31.5278 29.5436 32 31.1015 32C32.9875 32 34.455 31.4387 35.5026 30.3176C36.1739 29.6108 36.5532 28.9143 36.636 28.2313H33.5128C33.3321 28.5698 33.1214 28.8342 32.8821 29.0257C32.4471 29.3776 31.8796 29.5543 31.1858 29.5543C30.5265 29.5543 29.9651 29.4088 29.4984 29.1193C28.7278 28.6545 28.3244 27.8422 28.2732 26.6855H36.7971C36.8106 25.6891 36.7775 24.9229 36.6947 24.3942C36.5532 23.4899 36.2432 22.694 35.76 22.008ZM14.3533 24.7358V28.898H18.1946C18.8809 28.898 19.4168 28.8059 19.7976 28.6233C20.4915 28.2818 20.8377 27.6343 20.8377 26.6751C20.8377 25.8613 20.5035 25.3045 19.8307 25.0001C19.4544 24.8308 18.9261 24.7417 18.2487 24.7358H14.3533ZM14.3533 22.1535V18.71H17.7972C18.5543 18.71 19.1774 18.7916 19.6681 18.9535C20.2341 19.1881 20.517 19.6677 20.517 20.3968C20.517 21.0502 20.3018 21.5076 19.8743 21.7659C19.4439 22.0243 18.8854 22.1535 18.2006 22.1535H14.3533Z"/>
</mask>
<path fill-rule="evenodd" clip-rule="evenodd" d="M24 0C10.7452 0 0 10.7452 0 24C0 37.2548 10.7452 48 24 48C37.2548 48 48 37.2548 48 24C48 10.7452 37.2548 0 24 0ZM22.9449 17.6631C23.4281 18.3269 23.6704 19.1198 23.6704 20.0449C23.6704 20.9968 23.4281 21.7645 22.9389 22.3436C22.6649 22.6673 22.2631 22.9643 21.7317 23.2316C22.5385 23.5226 23.1466 23.9814 23.5605 24.6096C23.9699 25.2362 24.1761 25.9994 24.1761 26.8963C24.1761 27.8214 23.9413 28.6515 23.4702 29.3851C23.1722 29.8706 22.7989 30.2805 22.3504 30.6131C21.8461 30.9947 21.2516 31.2546 20.5637 31.3971C19.8758 31.5382 19.1323 31.6065 18.3285 31.6065H11.2V16H18.8448C20.7744 16.0282 22.1396 16.5821 22.9449 17.6631ZM27.5583 18.6699H34.3376V16.7276H27.5583V18.6699ZM29.1643 22.9078C28.7323 23.3474 28.4599 23.9428 28.3485 24.6942H33.6211C33.5654 23.8923 33.2915 23.2865 32.8068 22.8692C32.3161 22.4549 31.7126 22.2485 30.9901 22.2485C30.2074 22.2485 29.5963 22.4683 29.1643 22.9078ZM35.76 22.008C35.2302 21.2299 34.5574 20.6597 33.74 20.3003C32.9242 19.9395 32.0076 19.7583 30.9886 19.7583C29.2742 19.7583 27.8819 20.2944 26.8057 21.3591C25.7325 22.4267 25.1951 23.9606 25.1951 25.9608C25.1951 28.0932 25.7882 29.6345 26.9818 30.5804C28.1694 31.5278 29.5436 32 31.1015 32C32.9875 32 34.455 31.4387 35.5026 30.3176C36.1739 29.6108 36.5532 28.9143 36.636 28.2313H33.5128C33.3321 28.5698 33.1214 28.8342 32.8821 29.0257C32.4471 29.3776 31.8796 29.5543 31.1858 29.5543C30.5265 29.5543 29.9651 29.4088 29.4984 29.1193C28.7278 28.6545 28.3244 27.8422 28.2732 26.6855H36.7971C36.8106 25.6891 36.7775 24.9229 36.6947 24.3942C36.5532 23.4899 36.2432 22.694 35.76 22.008ZM14.3533 24.7358V28.898H18.1946C18.8809 28.898 19.4168 28.8059 19.7976 28.6233C20.4915 28.2818 20.8377 27.6343 20.8377 26.6751C20.8377 25.8613 20.5035 25.3045 19.8307 25.0001C19.4544 24.8308 18.9261 24.7417 18.2487 24.7358H14.3533ZM14.3533 22.1535V18.71H17.7972C18.5543 18.71 19.1774 18.7916 19.6681 18.9535C20.2341 19.1881 20.517 19.6677 20.517 20.3968C20.517 21.0502 20.3018 21.5076 19.8743 21.7659C19.4439 22.0243 18.8854 22.1535 18.2006 22.1535H14.3533Z" fill="#B9E39E"/>
<path d="M22.9449 17.6631L23.7534 17.0745L23.7468 17.0657L22.9449 17.6631ZM22.9389 22.3436L23.7022 22.9897L23.7028 22.9889L22.9389 22.3436ZM21.7317 23.2316L21.2823 22.3383L19.2048 23.3833L21.3924 24.1723L21.7317 23.2316ZM23.5605 24.6096L24.3977 24.0626L24.3956 24.0594L23.5605 24.6096ZM23.4702 29.3851L22.6288 28.8447L22.6233 28.8533L22.6179 28.862L23.4702 29.3851ZM22.3504 30.6131L21.7547 29.8098L21.747 29.8157L22.3504 30.6131ZM20.5637 31.3971L20.7646 32.3767L20.7666 32.3763L20.5637 31.3971ZM11.2 31.6065H10.2V32.6065H11.2V31.6065ZM11.2 16V15H10.2V16H11.2ZM18.8448 16L18.8594 15.0001L18.8521 15H18.8448V16ZM34.3376 18.6699V19.6699H35.3376V18.6699H34.3376ZM27.5583 18.6699H26.5583V19.6699H27.5583V18.6699ZM34.3376 16.7276H35.3376V15.7276H34.3376V16.7276ZM27.5583 16.7276V15.7276H26.5583V16.7276H27.5583ZM28.3485 24.6942L27.3593 24.5475L27.1893 25.6942H28.3485V24.6942ZM29.1643 22.9078L28.4511 22.2068L28.4511 22.2069L29.1643 22.9078ZM33.6211 24.6942V25.6942H34.693L34.6187 24.6249L33.6211 24.6942ZM32.8068 22.8692L33.4593 22.1113L33.4519 22.1051L32.8068 22.8692ZM33.74 20.3003L33.3355 21.2149L33.3375 21.2157L33.74 20.3003ZM35.76 22.008L34.9334 22.5708L34.9379 22.5774L34.9425 22.5839L35.76 22.008ZM26.8057 21.3591L26.1024 20.6482L26.1005 20.6501L26.8057 21.3591ZM26.9818 30.5804L27.6054 29.7987L27.6029 29.7967L26.9818 30.5804ZM35.5026 30.3176L34.7775 29.6289L34.772 29.6349L35.5026 30.3176ZM36.636 28.2313L37.6287 28.3517L37.7646 27.2313H36.636V28.2313ZM33.5128 28.2313V27.2313H32.9131L32.6306 27.7604L33.5128 28.2313ZM32.8821 29.0257L32.2573 28.2449L32.2532 28.2482L32.8821 29.0257ZM29.4984 29.1193L30.0256 28.2695L30.0149 28.263L29.4984 29.1193ZM28.2732 26.6855V25.6855H27.228L27.2742 26.7297L28.2732 26.6855ZM36.7971 26.6855V27.6855H37.7837L37.797 26.699L36.7971 26.6855ZM36.6947 24.3942L35.7067 24.5488L35.7068 24.5489L36.6947 24.3942ZM14.3533 28.898H13.3533V29.898H14.3533V28.898ZM14.3533 24.7358V23.7358H13.3533V24.7358H14.3533ZM19.7976 28.6233L20.23 29.525L20.2392 29.5205L19.7976 28.6233ZM19.8307 25.0001L20.2429 24.089L20.241 24.0881L19.8307 25.0001ZM18.2487 24.7358L18.2574 23.7358H18.2487V24.7358ZM14.3533 18.71V17.71H13.3533V18.71H14.3533ZM14.3533 22.1535H13.3533V23.1535H14.3533V22.1535ZM19.6681 18.9535L20.051 18.0297L20.0167 18.0155L19.9814 18.0039L19.6681 18.9535ZM19.8743 21.7659L20.389 22.6233L20.3915 22.6218L19.8743 21.7659ZM1 24C1 11.2975 11.2975 1 24 1V-1C10.1929 -1 -1 10.1929 -1 24H1ZM24 47C11.2975 47 1 36.7025 1 24H-1C-1 37.8071 10.1929 49 24 49V47ZM47 24C47 36.7025 36.7025 47 24 47V49C37.8071 49 49 37.8071 49 24H47ZM24 1C36.7025 1 47 11.2975 47 24H49C49 10.1929 37.8071 -1 24 -1V1ZM24.6704 20.0449C24.6704 18.9353 24.3761 17.93 23.7534 17.0746L22.1364 18.2516C22.4802 18.7238 22.6704 19.3043 22.6704 20.0449H24.6704ZM23.7028 22.9889C24.3817 22.1853 24.6704 21.1681 24.6704 20.0449H22.6704C22.6704 20.8255 22.4745 21.3437 22.175 21.6983L23.7028 22.9889ZM22.1811 24.1249C22.7902 23.8186 23.315 23.4471 23.7022 22.9897L22.1756 21.6975C22.0148 21.8875 21.7361 22.11 21.2823 22.3383L22.1811 24.1249ZM24.3956 24.0594C23.847 23.2268 23.0518 22.6447 22.071 22.2909L21.3924 24.1723C22.0252 24.4005 22.4463 24.736 22.7255 25.1598L24.3956 24.0594ZM25.1761 26.8963C25.1761 25.8431 24.9324 24.881 24.3977 24.0626L22.7234 25.1566C23.0075 25.5914 23.1761 26.1557 23.1761 26.8963H25.1761ZM24.3116 29.9255C24.8931 29.02 25.1761 28 25.1761 26.8963H23.1761C23.1761 27.6428 22.9895 28.283 22.6288 28.8447L24.3116 29.9255ZM22.9461 31.4163C23.4998 31.0057 23.9594 30.4998 24.3225 29.9082L22.6179 28.862C22.3851 29.2414 22.098 29.5553 21.7548 29.8099L22.9461 31.4163ZM20.7666 32.3763C21.5821 32.2074 22.3175 31.892 22.9538 31.4105L21.747 29.8157C21.3747 30.0974 20.9211 30.3018 20.3609 30.4179L20.7666 32.3763ZM18.3285 32.6065C19.1884 32.6065 20.0003 32.5335 20.7646 32.3767L20.3628 30.4175C19.7513 30.5429 19.0762 30.6065 18.3285 30.6065V32.6065ZM11.2 32.6065H18.3285V30.6065H11.2V32.6065ZM10.2 16V31.6065H12.2V16H10.2ZM18.8448 15H11.2V17H18.8448V15ZM23.7468 17.0657C22.6854 15.6409 20.9588 15.0308 18.8594 15.0001L18.8302 16.9999C20.59 17.0256 21.5938 17.5233 22.143 18.2605L23.7468 17.0657ZM34.3376 17.6699H27.5583V19.6699H34.3376V17.6699ZM33.3376 16.7276V18.6699H35.3376V16.7276H33.3376ZM27.5583 17.7276H34.3376V15.7276H27.5583V17.7276ZM28.5583 18.6699V16.7276H26.5583V18.6699H28.5583ZM29.3377 24.8409C29.4253 24.2501 29.625 23.8658 29.8776 23.6087L28.4511 22.2069C27.8397 22.8291 27.4945 23.6355 27.3593 24.5475L29.3377 24.8409ZM33.6211 23.6942H28.3485V25.6942H33.6211V23.6942ZM32.1544 23.627C32.3913 23.831 32.5817 24.1616 32.6235 24.7635L34.6187 24.6249C34.5491 23.623 34.1917 22.742 33.4593 22.1114L32.1544 23.627ZM30.9901 23.2485C31.5076 23.2485 31.8738 23.3903 32.1617 23.6333L33.4519 22.1051C32.7584 21.5195 31.9177 21.2485 30.9901 21.2485V23.2485ZM29.8775 23.6088C30.0731 23.4097 30.3978 23.2485 30.9901 23.2485V21.2485C30.0171 21.2485 29.1195 21.5269 28.4511 22.2068L29.8775 23.6088ZM33.3375 21.2157C33.9727 21.495 34.5024 21.9378 34.9334 22.5708L36.5866 21.4452C35.958 20.522 35.1422 19.8244 34.1425 19.3849L33.3375 21.2157ZM30.9886 20.7583C31.8873 20.7583 32.6635 20.9176 33.3355 21.2149L34.1445 19.3858C33.185 18.9614 32.1279 18.7583 30.9886 18.7583V20.7583ZM27.509 22.07C28.3741 21.2141 29.502 20.7583 30.9886 20.7583V18.7583C29.0465 18.7583 27.3897 19.3747 26.1024 20.6482L27.509 22.07ZM26.1951 25.9608C26.1951 24.1384 26.681 22.8937 27.511 22.0681L26.1005 20.6501C24.784 21.9597 24.1951 23.7828 24.1951 25.9608H26.1951ZM27.6029 29.7967C26.7354 29.1092 26.1951 27.9189 26.1951 25.9608H24.1951C24.1951 28.2675 24.841 30.1598 26.3607 31.3641L27.6029 29.7967ZM31.1015 31C29.763 31 28.6104 30.6003 27.6054 29.7987L26.3582 31.3621C27.7285 32.4553 29.3242 33 31.1015 33V31ZM34.772 29.6349C33.9553 30.5088 32.7785 31 31.1015 31V33C33.1966 33 34.9547 32.3686 36.2333 31.0004L34.772 29.6349ZM35.6433 28.1109C35.5952 28.5072 35.3616 29.014 34.7775 29.6289L36.2277 31.0063C36.9862 30.2076 37.5112 29.3214 37.6287 28.3517L35.6433 28.1109ZM33.5128 29.2313H36.636V27.2313H33.5128V29.2313ZM33.5069 29.8065C33.8739 29.5128 34.165 29.133 34.395 28.7022L32.6306 27.7604C32.4992 28.0066 32.3689 28.1556 32.2573 28.2449L33.5069 29.8065ZM31.1858 30.5543C32.0518 30.5543 32.8585 30.3311 33.511 29.8032L32.2532 28.2482C32.0358 28.4241 31.7074 28.5543 31.1858 28.5543V30.5543ZM28.9713 29.9691C29.6244 30.3742 30.3764 30.5543 31.1858 30.5543V28.5543C30.6766 28.5543 30.3058 28.4434 30.0255 28.2695L28.9713 29.9691ZM27.2742 26.7297C27.3351 28.1063 27.8388 29.2861 28.9819 29.9756L30.0149 28.263C29.6169 28.0229 29.3137 27.5781 29.2722 26.6413L27.2742 26.7297ZM36.7971 25.6855H28.2732V27.6855H36.7971V25.6855ZM35.7068 24.5489C35.7762 24.9923 35.8105 25.6907 35.7972 26.672L37.797 26.699C37.8107 25.6875 37.7788 24.8535 37.6827 24.2395L35.7068 24.5489ZM34.9425 22.5839C35.3284 23.1317 35.5865 23.7801 35.7067 24.5488L37.6827 24.2396C37.52 23.1997 37.158 22.2563 36.5776 21.4321L34.9425 22.5839ZM15.3533 28.898V24.7358H13.3533V28.898H15.3533ZM18.1946 27.898H14.3533V29.898H18.1946V27.898ZM19.3652 27.7216C19.1778 27.8115 18.8134 27.898 18.1946 27.898V29.898C18.9485 29.898 19.6559 29.8003 20.23 29.525L19.3652 27.7216ZM19.8377 26.6751C19.8377 27.0387 19.7717 27.2676 19.6958 27.4097C19.6265 27.5394 19.5258 27.6425 19.356 27.7261L20.2392 29.5205C20.7634 29.2626 21.1826 28.8712 21.46 28.3519C21.7306 27.8451 21.8377 27.2707 21.8377 26.6751H19.8377ZM19.4185 25.9112C19.5957 25.9913 19.6801 26.0797 19.7294 26.1617C19.7826 26.2503 19.8377 26.4042 19.8377 26.6751H21.8377C21.8377 26.1322 21.7257 25.6008 21.4436 25.1315C21.1576 24.6555 20.7385 24.3132 20.2429 24.089L19.4185 25.9112ZM18.24 25.7358C18.8548 25.7411 19.225 25.8241 19.4204 25.9121L20.241 24.0881C19.6839 23.8375 18.9974 23.7423 18.2574 23.7358L18.24 25.7358ZM14.3533 25.7358H18.2487V23.7358H14.3533V25.7358ZM13.3533 18.71V22.1535H15.3533V18.71H13.3533ZM17.7972 17.71H14.3533V19.71H17.7972V17.71ZM19.9814 18.0039C19.3551 17.7972 18.6169 17.71 17.7972 17.71V19.71C18.4917 19.71 18.9998 19.786 19.3548 19.9031L19.9814 18.0039ZM21.517 20.3968C21.517 19.9071 21.4222 19.4168 21.1666 18.9825C20.9038 18.5359 20.5133 18.2213 20.051 18.0297L19.2852 19.8773C19.3889 19.9203 19.4229 19.9628 19.443 19.997C19.4703 20.0434 19.517 20.1574 19.517 20.3968H21.517ZM20.3915 22.6218C21.2098 22.1274 21.517 21.2788 21.517 20.3968H19.517C19.517 20.8216 19.3938 20.8878 19.3572 20.91L20.3915 22.6218ZM18.2006 23.1535C19.0029 23.1535 19.7563 23.0031 20.389 22.6233L19.3596 20.9085C19.1315 21.0455 18.7679 21.1535 18.2006 21.1535V23.1535ZM14.3533 23.1535H18.2006V21.1535H14.3533V23.1535Z" fill="#0F0F0F" mask="url(#path-1-inside-1_89_30)"/>
</g>
<defs>
<clipPath id="clip0_89_30">
<rect width="48" height="48" fill="white"/>
</clipPath>
</defs>
</svg>
