<svg width="50" height="50" viewBox="0 0 50 50" fill="none" xmlns="http://www.w3.org/2000/svg">
<mask id="path-1-outside-1_509_67" maskUnits="userSpaceOnUse" x="0" y="0" width="50" height="50" fill="black">
<rect fill="white" width="50" height="50"/>
<path fill-rule="evenodd" clip-rule="evenodd" d="M49 25.1055C48.9893 11.7667 38.2318 1 25.0199 1C11.7375 1 1 11.8167 1 25.1983C1 35.895 7.87988 44.9495 17.4241 48.1542C18.6174 48.3951 19.0545 47.6335 19.0545 46.9929C19.0545 46.7988 19.0498 46.4416 19.0436 45.9743C19.0319 45.0914 19.0151 43.8157 19.0151 42.5055C12.3334 43.948 10.942 39.6209 10.942 39.6209C9.86818 36.8164 8.27715 36.0956 8.27715 36.0956C6.09022 34.6132 8.43645 34.6132 8.43645 34.6132C10.8623 34.7735 12.1353 37.0971 12.1353 37.0971C14.2824 40.7827 17.7422 39.7413 19.1341 39.1002C19.3328 37.5377 19.9695 36.456 20.6455 35.8552C15.3163 35.2942 9.70937 33.211 9.70937 23.9161C9.70937 21.2719 10.6632 19.1086 12.1746 17.4261C11.9361 16.8253 11.1008 14.3409 12.4135 11.0157C12.4135 11.0157 14.4417 10.3746 19.0146 13.4996C20.9725 12.9699 22.9916 12.7005 25.0199 12.6982C27.048 12.6982 29.1154 12.979 31.0246 13.4996C35.5981 10.3746 37.6262 11.0157 37.6262 11.0157C38.9389 14.3409 38.1031 16.8253 37.8646 17.4261C39.4158 19.1086 40.3303 21.2719 40.3303 23.9161C40.3303 33.211 34.7234 35.2539 29.3544 35.8552C30.2296 36.6163 30.9848 38.0584 30.9848 40.3421C30.9848 42.5101 30.9672 44.3921 30.9555 45.6414C30.9497 46.2621 30.9454 46.7266 30.9454 46.9924C30.9454 47.6335 31.383 48.3951 32.5758 48.1547C42.12 44.9491 48.9999 35.895 48.9999 25.1983C49 25.1806 49 25.1629 49 25.1452C49 25.132 49 25.1187 49 25.1055Z"/>
</mask>
<path fill-rule="evenodd" clip-rule="evenodd" d="M49 25.1055C48.9893 11.7667 38.2318 1 25.0199 1C11.7375 1 1 11.8167 1 25.1983C1 35.895 7.87988 44.9495 17.4241 48.1542C18.6174 48.3951 19.0545 47.6335 19.0545 46.9929C19.0545 46.7988 19.0498 46.4416 19.0436 45.9743C19.0319 45.0914 19.0151 43.8157 19.0151 42.5055C12.3334 43.948 10.942 39.6209 10.942 39.6209C9.86818 36.8164 8.27715 36.0956 8.27715 36.0956C6.09022 34.6132 8.43645 34.6132 8.43645 34.6132C10.8623 34.7735 12.1353 37.0971 12.1353 37.0971C14.2824 40.7827 17.7422 39.7413 19.1341 39.1002C19.3328 37.5377 19.9695 36.456 20.6455 35.8552C15.3163 35.2942 9.70937 33.211 9.70937 23.9161C9.70937 21.2719 10.6632 19.1086 12.1746 17.4261C11.9361 16.8253 11.1008 14.3409 12.4135 11.0157C12.4135 11.0157 14.4417 10.3746 19.0146 13.4996C20.9725 12.9699 22.9916 12.7005 25.0199 12.6982C27.048 12.6982 29.1154 12.979 31.0246 13.4996C35.5981 10.3746 37.6262 11.0157 37.6262 11.0157C38.9389 14.3409 38.1031 16.8253 37.8646 17.4261C39.4158 19.1086 40.3303 21.2719 40.3303 23.9161C40.3303 33.211 34.7234 35.2539 29.3544 35.8552C30.2296 36.6163 30.9848 38.0584 30.9848 40.3421C30.9848 42.5101 30.9672 44.3921 30.9555 45.6414C30.9497 46.2621 30.9454 46.7266 30.9454 46.9924C30.9454 47.6335 31.383 48.3951 32.5758 48.1547C42.12 44.9491 48.9999 35.895 48.9999 25.1983C49 25.1806 49 25.1629 49 25.1452C49 25.132 49 25.1187 49 25.1055Z" fill="#CDB4FF"/>
<path d="M49 25.1055L48 25.1063L48 25.1063L49 25.1055ZM17.4241 48.1542L17.1058 49.1022L17.165 49.1221L17.2262 49.1344L17.4241 48.1542ZM19.0436 45.9743L20.0435 45.9611L20.0435 45.9611L19.0436 45.9743ZM19.0151 42.5055H20.0151V41.2666L18.8041 41.528L19.0151 42.5055ZM10.942 39.6209L11.894 39.3148L11.8856 39.2888L11.8759 39.2633L10.942 39.6209ZM8.27715 36.0956L7.71606 36.9234L7.78672 36.9713L7.86448 37.0065L8.27715 36.0956ZM8.43645 34.6132L8.50239 33.6154L8.46945 33.6132H8.43645V34.6132ZM12.1353 37.0971L11.2583 37.5776L11.2646 37.5891L11.2712 37.6005L12.1353 37.0971ZM19.1341 39.1002L19.5525 40.0085L20.0562 39.7765L20.1261 39.2264L19.1341 39.1002ZM20.6455 35.8552L21.3098 36.6027L23.003 35.0978L20.7502 34.8607L20.6455 35.8552ZM12.1746 17.4261L12.9185 18.0944L13.3327 17.6332L13.104 17.0571L12.1746 17.4261ZM12.4135 11.0157L12.1121 10.0622L11.6582 10.2057L11.4834 10.6485L12.4135 11.0157ZM19.0146 13.4996L18.4504 14.3252L18.8309 14.5853L19.2758 14.4649L19.0146 13.4996ZM25.0199 12.6982L25.0199 11.6982L25.0188 11.6982L25.0199 12.6982ZM31.0246 13.4996L30.7615 14.4644L31.2073 14.5859L31.5888 14.3253L31.0246 13.4996ZM37.6262 11.0157L38.5563 10.6485L38.3815 10.2057L37.9276 10.0622L37.6262 11.0157ZM37.8646 17.4261L36.9352 17.0571L36.7031 17.6416L37.1294 18.1039L37.8646 17.4261ZM29.3544 35.8552L29.2431 34.8614L26.9793 35.115L28.6982 36.6098L29.3544 35.8552ZM30.9555 45.6414L31.9555 45.6508L31.9555 45.6508L30.9555 45.6414ZM32.5758 48.1547L32.7734 49.135L32.8348 49.1226L32.8942 49.1027L32.5758 48.1547ZM48.9999 25.1983L47.9999 25.1953V25.1983H48.9999ZM49 25.1452L48 25.1444L48 25.1444L49 25.1452ZM50 25.1047C49.9889 11.2183 38.7881 0 25.0199 0V2C37.6754 2 47.9898 12.3151 48 25.1063L50 25.1047ZM25.0199 0C11.1783 0 0 11.2714 0 25.1983H2C2 12.362 12.2967 2 25.0199 2V0ZM0 25.1983C0 36.3342 7.16345 45.7638 17.1058 49.1022L17.7424 47.2062C8.59631 44.1352 2 35.4558 2 25.1983H0ZM17.2262 49.1344C18.0598 49.3027 18.8202 49.1457 19.3678 48.6364C19.8793 48.1607 20.0545 47.5151 20.0545 46.9929H18.0545C18.0545 47.1113 18.0112 47.1668 18.0058 47.1719C18.0047 47.1728 18.003 47.1743 17.9988 47.1765C17.9946 47.1787 17.983 47.1843 17.9603 47.1894C17.915 47.1997 17.8097 47.2119 17.622 47.174L17.2262 49.1344ZM20.0545 46.9929C20.0545 46.7903 20.0496 46.4242 20.0435 45.9611L18.0437 45.9876C18.0499 46.4589 18.0545 46.8072 18.0545 46.9929H20.0545ZM20.0435 45.9611C20.0319 45.0778 20.0151 43.8082 20.0151 42.5055H18.0151C18.0151 43.8232 18.032 45.1051 18.0437 45.9876L20.0435 45.9611ZM18.8041 41.528C15.7017 42.1978 13.9934 41.5055 13.079 40.8087C12.6039 40.4467 12.2997 40.051 12.1164 39.7519C12.0248 39.6025 11.9646 39.4792 11.9293 39.3994C11.9117 39.3597 11.9005 39.3312 11.8949 39.3162C11.8921 39.3087 11.8906 39.3047 11.8905 39.3043C11.8905 39.3041 11.8907 39.3049 11.8913 39.3066C11.8916 39.3075 11.892 39.3086 11.8924 39.31C11.8926 39.3106 11.8929 39.3114 11.8931 39.3122C11.8933 39.3126 11.8935 39.3132 11.8935 39.3134C11.8938 39.3141 11.894 39.3148 10.942 39.6209C9.98999 39.927 9.99022 39.9277 9.99045 39.9285C9.99054 39.9287 9.99078 39.9295 9.99095 39.93C9.9913 39.9311 9.99167 39.9322 9.99206 39.9334C9.99285 39.9358 9.99374 39.9385 9.99472 39.9414C9.99669 39.9473 9.99905 39.9542 10.0018 39.9622C10.0074 39.9782 10.0146 39.9982 10.0236 40.0221C10.0416 40.0698 10.0668 40.1328 10.1003 40.2086C10.1672 40.3598 10.2679 40.5633 10.4112 40.7971C10.6976 41.2642 11.1588 41.8601 11.8668 42.3995C13.3185 43.5057 15.6468 44.2557 19.2261 43.483L18.8041 41.528ZM11.8759 39.2633C11.2886 37.7294 10.5448 36.7288 9.91318 36.0986C9.59881 35.785 9.31591 35.5668 9.09989 35.4218C8.99197 35.3493 8.90089 35.2952 8.83109 35.2567C8.79619 35.2374 8.7666 35.222 8.74288 35.2101C8.73101 35.2042 8.72062 35.1991 8.71175 35.1949C8.70732 35.1928 8.70327 35.1909 8.69961 35.1892C8.69778 35.1884 8.69605 35.1876 8.69442 35.1868C8.6936 35.1864 8.69281 35.1861 8.69204 35.1857C8.69166 35.1856 8.6911 35.1853 8.69091 35.1852C8.69036 35.185 8.68982 35.1847 8.27715 36.0956C7.86448 37.0065 7.86395 37.0062 7.86343 37.006C7.86326 37.0059 7.86274 37.0057 7.8624 37.0055C7.86174 37.0052 7.86109 37.0049 7.86047 37.0047C7.85922 37.0041 7.85807 37.0035 7.85701 37.0031C7.85489 37.0021 7.85313 37.0012 7.85174 37.0006C7.84896 36.9993 7.84763 36.9986 7.84768 36.9986C7.84779 36.9987 7.85343 37.0015 7.86414 37.0074C7.88554 37.0192 7.92715 37.0434 7.98516 37.0823C8.10101 37.1601 8.28299 37.2974 8.5006 37.5145C8.93299 37.9459 9.52159 38.7079 10.0081 39.9785L11.8759 39.2633ZM8.83824 35.2678C8.59527 35.1032 8.44407 34.9781 8.35511 34.8912C8.25928 34.7975 8.27327 34.7844 8.30137 34.8513C8.33981 34.9428 8.38234 35.141 8.28716 35.3655C8.20462 35.5601 8.0725 35.6434 8.0459 35.6591C8.01553 35.6771 8.01431 35.6715 8.06388 35.6585C8.10749 35.647 8.164 35.6366 8.22774 35.6287C8.28979 35.6209 8.34693 35.6169 8.3882 35.6149C8.40838 35.614 8.42362 35.6135 8.43237 35.6133C8.43671 35.6132 8.43937 35.6132 8.44013 35.6132C8.44051 35.6132 8.44041 35.6132 8.43981 35.6132C8.43951 35.6132 8.43908 35.6132 8.43852 35.6132C8.43824 35.6132 8.43793 35.6132 8.43758 35.6132C8.43741 35.6132 8.43713 35.6132 8.43704 35.6132C8.43675 35.6132 8.43645 35.6132 8.43645 34.6132C8.43645 33.6132 8.43613 33.6132 8.4358 33.6132C8.43568 33.6132 8.43535 33.6132 8.4351 33.6132C8.43461 33.6132 8.43409 33.6132 8.43353 33.6132C8.4324 33.6132 8.43113 33.6132 8.42971 33.6132C8.42686 33.6132 8.42343 33.6133 8.41944 33.6133C8.41146 33.6134 8.40121 33.6135 8.3889 33.6138C8.36435 33.6143 8.33131 33.6153 8.29161 33.6173C8.21312 33.6211 8.10405 33.6286 7.98031 33.644C7.77213 33.67 7.3718 33.7341 7.0275 33.9379C6.84431 34.0462 6.58976 34.2453 6.44584 34.5847C6.28928 34.954 6.33147 35.326 6.45749 35.6259C6.66843 36.128 7.15933 36.546 7.71606 36.9234L8.83824 35.2678ZM8.37051 35.611C9.26483 35.6701 9.97832 36.1293 10.5005 36.6342C10.7581 36.8833 10.9542 37.1298 11.0845 37.3124C11.1492 37.4031 11.1964 37.4762 11.2257 37.5235C11.2403 37.5471 11.2504 37.5641 11.2559 37.5735C11.2586 37.5782 11.2602 37.581 11.2606 37.5817C11.2608 37.5821 11.2607 37.5819 11.2603 37.5812C11.2601 37.5809 11.2599 37.5804 11.2595 37.5798C11.2594 37.5795 11.2592 37.5792 11.259 37.5788C11.2589 37.5786 11.2587 37.5783 11.2586 37.5782C11.2585 37.5779 11.2583 37.5776 12.1353 37.0971C13.0123 36.6166 13.0121 36.6163 13.0119 36.6159C13.0119 36.6158 13.0117 36.6155 13.0115 36.6152C13.0112 36.6147 13.0109 36.6141 13.0106 36.6135C13.01 36.6124 13.0092 36.6111 13.0084 36.6096C13.0068 36.6067 13.0048 36.6032 13.0026 36.5991C12.998 36.5911 12.9921 36.5808 12.985 36.5684C12.9706 36.5437 12.9509 36.5106 12.926 36.4704C12.8762 36.39 12.805 36.2803 12.7125 36.1506C12.5283 35.8926 12.2545 35.5481 11.8907 35.1964C11.1699 34.4994 10.0339 33.7166 8.50239 33.6154L8.37051 35.611ZM11.2712 37.6005C12.5096 39.7261 14.2011 40.5675 15.8263 40.717C17.3826 40.8601 18.7823 40.3632 19.5525 40.0085L18.7157 38.1919C18.094 38.4783 17.0678 38.8227 16.0095 38.7254C15.0201 38.6344 13.9081 38.1537 12.9994 36.5937L11.2712 37.6005ZM20.1261 39.2264C20.2989 37.868 20.8398 37.0203 21.3098 36.6027L19.9812 35.1077C19.0992 35.8917 18.3667 37.2074 18.1421 38.974L20.1261 39.2264ZM20.7502 34.8607C18.1492 34.5869 15.6614 33.9541 13.8256 32.398C12.0357 30.8808 10.7094 28.3484 10.7094 23.9161H8.70937C8.70937 28.7787 10.1866 31.9353 12.5324 33.9237C14.8324 35.8732 17.8126 36.5625 20.5408 36.8497L20.7502 34.8607ZM10.7094 23.9161C10.7094 21.5332 11.562 19.6045 12.9185 18.0944L11.4307 16.7578C9.76443 18.6127 8.70937 21.0106 8.70937 23.9161H10.7094ZM13.104 17.0571C12.9216 16.5975 12.1562 14.3909 13.3436 11.3829L11.4834 10.6485C10.0454 14.2909 10.9506 17.0531 11.2452 17.7951L13.104 17.0571ZM12.4135 11.0157C12.7149 11.9692 12.7139 11.9695 12.713 11.9698C12.7127 11.9699 12.7118 11.9702 12.7112 11.9704C12.71 11.9707 12.7088 11.9711 12.7076 11.9715C12.7053 11.9722 12.7031 11.9728 12.701 11.9735C12.6969 11.9747 12.6932 11.9758 12.69 11.9767C12.6836 11.9785 12.6791 11.9796 12.6765 11.9803C12.6713 11.9815 12.6738 11.9807 12.6843 11.9789C12.7051 11.9752 12.7582 11.9672 12.8449 11.9634C13.0176 11.956 13.3294 11.9653 13.7904 12.0637C14.7138 12.2609 16.2449 12.8181 18.4504 14.3252L19.5788 12.674C17.2114 11.0561 15.4419 10.3713 14.2081 10.1078C13.5904 9.97592 13.1093 9.95018 12.7588 9.96528C12.5839 9.97282 12.4428 9.99048 12.3349 10.0096C12.2809 10.0192 12.2354 10.0291 12.1983 10.0383C12.1797 10.0428 12.1633 10.0472 12.1489 10.0512C12.1417 10.0533 12.1351 10.0552 12.1289 10.057C12.1259 10.0579 12.1229 10.0588 12.1201 10.0597C12.1187 10.0601 12.1174 10.0606 12.116 10.061C12.1154 10.0612 12.1144 10.0615 12.114 10.0616C12.1131 10.0619 12.1121 10.0622 12.4135 11.0157ZM19.2758 14.4649C21.1489 13.9581 23.0805 13.7004 25.021 13.6982L25.0188 11.6982C22.9027 11.7006 20.7961 11.9817 18.7534 12.5343L19.2758 14.4649ZM25.0199 13.6982C26.9589 13.6982 28.9378 13.9671 30.7615 14.4644L31.2877 12.5348C29.293 11.9909 27.1371 11.6982 25.0199 11.6982V13.6982ZM31.5888 14.3253C33.7945 12.8181 35.3258 12.2609 36.2493 12.0637C36.7103 11.9653 37.0221 11.956 37.1948 11.9634C37.2815 11.9672 37.3346 11.9752 37.3554 11.9789C37.3659 11.9807 37.3684 11.9815 37.3632 11.9803C37.3606 11.9796 37.3561 11.9785 37.3497 11.9767C37.3465 11.9758 37.3428 11.9747 37.3387 11.9735C37.3366 11.9728 37.3344 11.9722 37.3321 11.9715C37.3309 11.9711 37.3297 11.9707 37.3285 11.9704C37.3279 11.9702 37.327 11.9699 37.3267 11.9698C37.3257 11.9695 37.3248 11.9692 37.6262 11.0157C37.9276 10.0622 37.9266 10.0619 37.9257 10.0616C37.9253 10.0615 37.9244 10.0612 37.9237 10.061C37.9224 10.0606 37.921 10.0601 37.9196 10.0597C37.9168 10.0588 37.9138 10.058 37.9108 10.057C37.9046 10.0552 37.898 10.0533 37.8908 10.0513C37.8764 10.0472 37.86 10.0428 37.8414 10.0383C37.8043 10.0291 37.7588 10.0192 37.7049 10.0096C37.5969 9.99048 37.4558 9.97282 37.2809 9.96528C36.9304 9.95018 36.4493 9.97592 35.8316 10.1078C34.5977 10.3713 32.8281 11.0561 30.4604 12.6739L31.5888 14.3253ZM36.6961 11.3829C37.8835 14.3908 37.1177 16.5973 36.9352 17.0571L38.794 17.7951C39.0885 17.0533 39.9943 14.291 38.5563 10.6485L36.6961 11.3829ZM37.1294 18.1039C38.5103 19.6018 39.3303 21.5231 39.3303 23.9161H41.3303C41.3303 21.0207 40.3213 18.6154 38.5998 16.7483L37.1294 18.1039ZM39.3303 23.9161C39.3303 28.3479 38.0044 30.8692 36.2111 32.3812C34.3696 33.9339 31.8708 34.5671 29.2431 34.8614L29.4657 36.849C32.207 36.542 35.1961 35.8531 37.5003 33.9103C39.8527 31.9268 41.3303 28.7792 41.3303 23.9161H39.3303ZM28.6982 36.6098C29.3078 37.1399 29.9848 38.2787 29.9848 40.3421H31.9848C31.9848 37.8381 31.1515 36.0927 30.0106 35.1006L28.6982 36.6098ZM29.9848 40.3421C29.9848 42.505 29.9673 44.3829 29.9556 45.6321L31.9555 45.6508C31.9672 44.4013 31.9848 42.5151 31.9848 40.3421H29.9848ZM29.9556 45.6321C29.9498 46.2499 29.9454 46.7206 29.9454 46.9924H31.9454C31.9454 46.7325 31.9497 46.2743 31.9555 45.6508L29.9556 45.6321ZM29.9454 46.9924C29.9454 47.515 30.1208 48.1606 30.6322 48.6363C31.1797 49.1456 31.9398 49.303 32.7734 49.135L32.3782 47.1744C32.1908 47.2122 32.0855 47.2 32.0402 47.1897C32.0175 47.1845 32.0059 47.179 32.0016 47.1767C31.9973 47.1745 31.9955 47.1729 31.9944 47.172C31.9888 47.1667 31.9454 47.1109 31.9454 46.9924H29.9454ZM32.8942 49.1027C42.8364 45.7634 49.9999 36.3342 49.9999 25.1983H47.9999C47.9999 35.4558 41.4036 44.1348 32.2574 47.2067L32.8942 49.1027ZM49.9999 25.2013C50 25.1828 50 25.1643 50 25.1461L48 25.1444C48 25.1615 48 25.1784 47.9999 25.1953L49.9999 25.2013ZM50 25.1461C50 25.1323 50 25.1184 50 25.1046L48 25.1063C48 25.119 48 25.1317 48 25.1444L50 25.1461Z" fill="#0F0F0F" mask="url(#path-1-outside-1_509_67)"/>
</svg>
