<svg width="48" height="48" viewBox="0 0 48 48" fill="none" xmlns="http://www.w3.org/2000/svg">
<g clip-path="url(#clip0_89_33)">
<mask id="path-1-inside-1_89_33" fill="white">
<path fill-rule="evenodd" clip-rule="evenodd" d="M24 0C10.7452 0 0 10.7452 0 24C0 37.2548 10.7452 48 24 48C37.2548 48 48 37.2548 48 24C48 10.7452 37.2548 0 24 0ZM14.2412 17.6473C16.1377 17.6473 17.3188 16.3918 17.3188 14.8227C17.2835 13.2204 16.1377 12 14.277 12C12.4164 12 11.2 13.2204 11.2 14.8227C11.2 16.3918 12.3805 17.6473 14.2064 17.6473H14.2412ZM16.9605 36.2196V19.8778H11.5216V36.2196H16.9605ZM36.5754 26.8497L36.5752 36.2196H31.1365V27.4767C31.1365 25.2807 30.3494 23.7822 28.3805 23.7822C26.8779 23.7822 25.9829 24.7924 25.5898 25.7681C25.446 26.1178 25.4107 26.605 25.4107 27.0934V36.22H19.9711C19.9711 36.22 20.0428 21.4117 19.9711 19.8783H25.4107V22.1929C26.1325 21.0802 27.4254 19.4941 30.3131 19.4941C33.8922 19.4941 36.5754 21.8303 36.5754 26.8497Z"/>
</mask>
<path fill-rule="evenodd" clip-rule="evenodd" d="M24 0C10.7452 0 0 10.7452 0 24C0 37.2548 10.7452 48 24 48C37.2548 48 48 37.2548 48 24C48 10.7452 37.2548 0 24 0ZM14.2412 17.6473C16.1377 17.6473 17.3188 16.3918 17.3188 14.8227C17.2835 13.2204 16.1377 12 14.277 12C12.4164 12 11.2 13.2204 11.2 14.8227C11.2 16.3918 12.3805 17.6473 14.2064 17.6473H14.2412ZM16.9605 36.2196V19.8778H11.5216V36.2196H16.9605ZM36.5754 26.8497L36.5752 36.2196H31.1365V27.4767C31.1365 25.2807 30.3494 23.7822 28.3805 23.7822C26.8779 23.7822 25.9829 24.7924 25.5898 25.7681C25.446 26.1178 25.4107 26.605 25.4107 27.0934V36.22H19.9711C19.9711 36.22 20.0428 21.4117 19.9711 19.8783H25.4107V22.1929C26.1325 21.0802 27.4254 19.4941 30.3131 19.4941C33.8922 19.4941 36.5754 21.8303 36.5754 26.8497Z" fill="#CDB4FF"/>
<path d="M17.3188 14.8227H18.3188V14.8117L18.3186 14.8007L17.3188 14.8227ZM16.9605 19.8778H17.9605V18.8778H16.9605V19.8778ZM16.9605 36.2196V37.2196H17.9605V36.2196H16.9605ZM11.5216 19.8778V18.8778H10.5216V19.8778H11.5216ZM11.5216 36.2196H10.5216V37.2196H11.5216V36.2196ZM36.5752 36.2196V37.2196H37.5752L37.5752 36.2196L36.5752 36.2196ZM36.5754 26.8497L37.5754 26.8497V26.8497H36.5754ZM31.1365 36.2196H30.1365V37.2196H31.1365V36.2196ZM25.5898 25.7681L26.5147 26.1484L26.5173 26.1418L25.5898 25.7681ZM25.4107 36.22V37.22H26.4107V36.22H25.4107ZM19.9711 36.22L18.9711 36.2152L18.9662 37.22H19.9711V36.22ZM19.9711 19.8783V18.8783H18.9232L18.9722 19.925L19.9711 19.8783ZM25.4107 19.8783H26.4107V18.8783H25.4107V19.8783ZM25.4107 22.1929H24.4107V25.572L26.2496 22.7371L25.4107 22.1929ZM1 24C1 11.2975 11.2975 1 24 1V-1C10.1929 -1 -1 10.1929 -1 24H1ZM24 47C11.2975 47 1 36.7025 1 24H-1C-1 37.8071 10.1929 49 24 49V47ZM47 24C47 36.7025 36.7025 47 24 47V49C37.8071 49 49 37.8071 49 24H47ZM24 1C36.7025 1 47 11.2975 47 24H49C49 10.1929 37.8071 -1 24 -1V1ZM16.3188 14.8227C16.3188 15.3495 16.1243 15.79 15.7994 16.1013C15.475 16.4121 14.9636 16.6473 14.2412 16.6473V18.6473C15.4153 18.6473 16.4427 18.2548 17.183 17.5455C17.9227 16.8368 18.3188 15.865 18.3188 14.8227H16.3188ZM14.277 13C14.9825 13 15.4741 13.227 15.7878 13.5299C16.1034 13.8346 16.3066 14.2807 16.319 14.8447L18.3186 14.8007C18.2957 13.7624 17.9084 12.7972 17.177 12.0911C16.4439 11.3832 15.4322 11 14.277 11V13ZM12.2 14.8227C12.2 14.2839 12.3998 13.846 12.7263 13.5385C13.0549 13.2291 13.5687 13 14.277 13V11C13.1247 11 12.1 11.3811 11.3552 12.0825C10.6084 12.7857 10.2 13.7592 10.2 14.8227H12.2ZM14.2064 16.6473C12.9083 16.6473 12.2 15.8153 12.2 14.8227H10.2C10.2 16.9683 11.8527 18.6473 14.2064 18.6473V16.6473ZM14.2412 16.6473H14.2064V18.6473H14.2412V16.6473ZM15.9605 19.8778V36.2196H17.9605V19.8778H15.9605ZM11.5216 20.8778H16.9605V18.8778H11.5216V20.8778ZM12.5216 36.2196V19.8778H10.5216V36.2196H12.5216ZM16.9605 35.2196H11.5216V37.2196H16.9605V35.2196ZM37.5752 36.2196L37.5754 26.8497L35.5754 26.8497L35.5752 36.2196L37.5752 36.2196ZM31.1365 37.2196H36.5752V35.2196H31.1365V37.2196ZM30.1365 27.4767V36.2196H32.1365V27.4767H30.1365ZM28.3805 24.7822C29.0708 24.7822 29.4338 25.0222 29.6708 25.3695C29.9511 25.7804 30.1365 26.4699 30.1365 27.4767H32.1365C32.1365 26.2875 31.9283 25.1297 31.3229 24.2424C30.6741 23.2914 29.6591 22.7822 28.3805 22.7822V24.7822ZM26.5173 26.1418C26.8147 25.4037 27.419 24.7822 28.3805 24.7822V22.7822C26.3368 22.7822 25.1511 24.1811 24.6622 25.3944L26.5173 26.1418ZM26.4107 27.0934C26.4107 26.6099 26.4526 26.2994 26.5147 26.1484L24.6649 25.3878C24.4394 25.9362 24.4107 26.6001 24.4107 27.0934H26.4107ZM26.4107 36.22V27.0934H24.4107V36.22H26.4107ZM19.9711 37.22H25.4107V35.22H19.9711V37.22ZM18.9722 19.925C19.0065 20.6596 19.007 24.7066 18.998 28.6219C18.9935 30.568 18.9868 32.4664 18.9812 33.8783C18.9784 34.5842 18.9759 35.1685 18.974 35.5762C18.9731 35.7801 18.9724 35.9399 18.9719 36.0487C18.9716 36.103 18.9714 36.1447 18.9713 36.1727C18.9712 36.1867 18.9712 36.1974 18.9712 36.2045C18.9711 36.208 18.9711 36.2107 18.9711 36.2125C18.9711 36.2134 18.9711 36.214 18.9711 36.2145C18.9711 36.2147 18.9711 36.2149 18.9711 36.215C18.9711 36.2151 18.9711 36.2152 19.9711 36.22C20.9711 36.2248 20.9711 36.2248 20.9711 36.2247C20.9711 36.2246 20.9711 36.2244 20.9711 36.2242C20.9711 36.2237 20.9711 36.223 20.9711 36.2221C20.9711 36.2203 20.9711 36.2176 20.9711 36.2141C20.9712 36.2069 20.9712 36.1963 20.9713 36.1822C20.9714 36.1541 20.9716 36.1124 20.9719 36.058C20.9724 35.9491 20.9731 35.7892 20.974 35.5852C20.9758 35.1771 20.9784 34.5925 20.9812 33.8862C20.9868 32.4736 20.9935 30.5741 20.998 28.6265C21.0069 24.7542 21.0074 20.6304 20.97 19.8316L18.9722 19.925ZM25.4107 18.8783H19.9711V20.8783H25.4107V18.8783ZM26.4107 22.1929V19.8783H24.4107V22.1929H26.4107ZM30.3131 18.4941C28.6708 18.4941 27.4263 18.9499 26.4808 19.6038C25.5501 20.2475 24.9618 21.0474 24.5718 21.6487L26.2496 22.7371C26.5814 22.2257 27.0004 21.6762 27.6185 21.2487C28.2219 20.8314 29.0677 20.4941 30.3131 20.4941V18.4941ZM37.5754 26.8497C37.5754 24.1676 36.8568 22.0584 35.5212 20.6114C34.1785 19.1566 32.3251 18.4941 30.3131 18.4941V20.4941C31.8802 20.4941 33.158 20.9997 34.0516 21.9679C34.9524 22.9438 35.5754 24.5124 35.5754 26.8497H37.5754Z" fill="#0F0F0F" mask="url(#path-1-inside-1_89_33)"/>
</g>
<defs>
<clipPath id="clip0_89_33">
<rect width="48" height="48" fill="white"/>
</clipPath>
</defs>
</svg>
