<svg width="48" height="48" viewBox="0 0 48 48" fill="none" xmlns="http://www.w3.org/2000/svg">
<g clip-path="url(#clip0_89_36)">
<path d="M24 47.5C21.8516 47.5 19.7167 47.2388 17.7094 46.6046C18.1349 45.8979 18.6377 45.0544 19.1023 44.1732C19.6883 43.0618 20.2325 41.8562 20.4872 40.7524L20.492 40.7317L20.495 40.7107C20.5699 40.1861 20.9202 38.78 21.2637 37.4665C21.4048 36.9272 21.5425 36.4118 21.6551 35.9937C22.1077 36.4671 22.6836 36.8873 23.329 37.2235C24.3547 37.7577 25.5935 38.1 26.88 38.1C34.4401 38.1 39.86 31.2239 39.86 22.72C39.86 14.4149 33.2062 8.3 24.64 8.3C19.3216 8.3 15.2282 10.1032 12.4638 12.9091C9.70384 15.7106 8.3 19.4803 8.3 23.36C8.3 25.1964 8.75748 27.2305 9.60965 28.9972C10.4596 30.7593 11.728 32.3065 13.386 33.0919L13.4132 33.1048L13.4419 33.1143C13.5636 33.1549 13.6938 33.1955 13.8181 33.2174C13.9429 33.2394 14.1067 33.2515 14.2781 33.1943C14.6511 33.07 14.7943 32.7181 14.8743 32.4781L14.9 32.4011V32.32C14.9 32.3218 14.9 32.3215 14.9003 32.3187C14.9011 32.3108 14.9039 32.2842 14.9133 32.2312C14.9247 32.1669 14.942 32.084 14.9649 31.9841C15.0106 31.7844 15.0739 31.5357 15.144 31.2655C15.1626 31.1937 15.1818 31.1202 15.2011 31.0458C15.3247 30.5714 15.458 30.0593 15.5303 29.6981L15.54 29.6495V29.6L15.54 29.593C15.54 29.5135 15.5401 29.3591 15.5132 29.1978C15.4882 29.0477 15.4281 28.8119 15.2503 28.6237C14.3862 27.6068 13.62 25.4977 13.62 23.52C13.62 18.4961 17.4158 13.62 24 13.62C26.8456 13.62 29.2362 14.5797 30.9126 16.1996C32.5876 17.8181 33.58 20.1248 33.58 22.88C33.58 26.0843 32.7978 28.7384 31.5286 30.5758C30.2645 32.4059 28.5273 33.42 26.56 33.42C25.4933 33.42 24.5981 32.9946 24.0417 32.337C23.4907 31.6858 23.244 30.7757 23.5231 29.7288L23.5258 29.7187L23.5281 29.7085C23.7629 28.6517 24.0838 27.5787 24.4 26.5211C24.5085 26.1583 24.6165 25.7972 24.7202 25.4392C25.1184 24.0654 25.46 22.7208 25.46 21.6C25.46 20.636 25.1978 19.676 24.6092 18.9461C24.009 18.2018 23.1025 17.74 21.92 17.74C19.1275 17.74 17.1 20.4967 17.1 24C17.1 25.0905 17.2677 26.0131 17.4359 26.6649C17.5201 26.9912 17.6047 27.2508 17.6693 27.4311C17.6867 27.4796 17.7026 27.5224 17.7167 27.5592L17.6496 27.841L17.3711 29.009C17.1387 29.984 16.8237 31.3039 16.4937 32.6837C15.8334 35.4452 15.1141 38.4419 14.8749 39.3987L14.8748 39.3987L14.8728 39.4076C14.4397 41.2843 14.509 43.7523 14.6388 45.6219C6.40628 41.9937 0.5 33.7334 0.5 24C0.5 10.9961 10.9961 0.5 24 0.5C37.0039 0.5 47.5 10.9961 47.5 24C47.5 37.0039 37.0039 47.5 24 47.5Z" fill="#B9E39E" stroke="#0F0F0F"/>
</g>
<defs>
<clipPath id="clip0_89_36">
<rect width="48" height="48" fill="white"/>
</clipPath>
</defs>
</svg>
