<svg width="21" height="23" viewBox="0 0 21 23" fill="none" xmlns="http://www.w3.org/2000/svg">
<g clip-path="url(#clip0_514_644)">
<path d="M20.3152 14H19.6304V2.25C19.6304 1.00935 18.7089 0 17.5761 0H3.4239C2.29113 0 1.36955 1.00935 1.36955 2.25V14H0.684797C0.306592 14 0 14.3358 0 14.75V22.25C0 22.6642 0.306592 23 0.684797 23H20.3152C20.6934 23 21 22.6642 21 22.25V14.75C21 14.3358 20.6934 14 20.3152 14ZM2.73915 2.25C2.73915 1.83645 3.04635 1.49999 3.42394 1.49999H17.5761C17.9537 1.49999 18.2609 1.83645 18.2609 2.25V14H2.73915V2.25ZM19.6304 21.5H1.36955V15.5C1.84361 15.5 19.1602 15.5 19.6304 15.5V21.5H19.6304Z" fill="white" stroke="white" stroke-width="0.433594"/>
<path d="M12.0979 17C11.7197 17 11.4131 17.3358 11.4131 17.75V19.25C11.4131 19.6642 11.7197 20 12.0979 20C12.4761 20 12.7827 19.6642 12.7827 19.25V17.75C12.7826 17.3358 12.476 17 12.0979 17Z" fill="white" stroke="white" stroke-width="0.433594"/>
<path d="M14.8369 17C14.4587 17 14.1521 17.3358 14.1521 17.75V19.25C14.1521 19.6642 14.4587 20 14.8369 20C15.2151 20 15.5217 19.6642 15.5217 19.25V17.75C15.5217 17.3358 15.2151 17 14.8369 17Z" fill="white" stroke="white" stroke-width="0.433594"/>
<path d="M17.5762 17C17.198 17 16.8914 17.3358 16.8914 17.75V19.25C16.8914 19.6642 17.1979 20 17.5762 20C17.9544 20 18.261 19.6642 18.261 19.25V17.75C18.2609 17.3358 17.9543 17 17.5762 17Z" fill="white" stroke="white" stroke-width="0.433594"/>
<path d="M9.35873 17.75H3.42393C3.04577 17.75 2.73914 18.0858 2.73914 18.5C2.73914 18.9142 3.04573 19.25 3.42393 19.25H9.35873C9.73689 19.25 10.0435 18.9142 10.0435 18.5C10.0435 18.0858 9.73689 17.75 9.35873 17.75Z" fill="white" stroke="white" stroke-width="0.433594"/>
<path d="M16.2064 3.00002H4.79344C4.41528 3.00002 4.10864 3.33581 4.10864 3.75003V11.75C4.10864 12.1642 4.41523 12.5 4.79344 12.5H16.2064C16.5846 12.5 16.8912 12.1643 16.8912 11.75V3.74999C16.8912 3.33581 16.5847 3.00002 16.2064 3.00002ZM15.5217 11H5.4782V4.5H15.5217V11Z" fill="white" stroke="white" stroke-width="0.433594"/>
</g>
<defs>
<clipPath id="clip0_514_644">
<rect width="21" height="23" fill="white"/>
</clipPath>
</defs>
</svg>
