<svg width="104" height="103" viewBox="0 0 104 103" fill="none" xmlns="http://www.w3.org/2000/svg">
<path d="M86.634 17.1666L78.042 79.3958L52.2661 87.9791L26.4902 79.3958L17.8982 17.1666H86.634Z" stroke="#252525" stroke-width="5" stroke-linecap="round" stroke-linejoin="round"/>
<path d="M32.9342 34.3334H45.8221V68.6667L37.2302 64.375" stroke="#252525" stroke-width="5" stroke-linecap="round" stroke-linejoin="round"/>
<path d="M71.598 34.3334H60.8581C60.2884 34.3334 59.742 34.5595 59.3392 34.9619C58.9364 35.3643 58.7101 35.9101 58.7101 36.4792V49.3542C58.7101 49.9233 58.9364 50.4691 59.3392 50.8715C59.742 51.274 60.2884 51.5 60.8581 51.5H66.9713C67.2787 51.5001 67.5826 51.5661 67.8623 51.6935C68.1421 51.821 68.3911 52.007 68.5927 52.2389C68.7943 52.4708 68.9438 52.7432 69.0309 53.0378C69.118 53.3324 69.1408 53.6422 69.0978 53.9463L67.3021 66.5209L58.7101 68.6667" stroke="#252525" stroke-width="5" stroke-linecap="round" stroke-linejoin="round"/>
</svg>
