<svg width="103" height="103" viewBox="0 0 103 103" fill="none" xmlns="http://www.w3.org/2000/svg">
<path d="M49.6799 25.75C39.0868 25.75 32.4756 30.9944 29.8252 41.4875C33.7944 36.2388 38.4316 34.2775 43.7239 35.5865C46.7445 36.3332 48.9014 38.5048 51.288 40.9082C55.1849 44.8222 59.7966 49.3542 69.5304 49.3542C80.1235 49.3542 86.7347 44.1097 89.3851 33.6166C85.4158 38.8653 80.7787 40.8266 75.4863 39.5177C72.4658 38.7709 70.3089 36.5993 67.9222 34.196C64.0253 30.282 59.5201 25.75 49.6799 25.75ZM32.6628 53.6458C22.0697 53.6458 15.4585 58.8902 12.8081 69.3834C16.7773 64.1347 21.4145 62.1734 26.7068 63.4823C29.7274 64.2291 31.8843 66.4007 34.2709 68.804C38.1678 72.718 42.6731 77.25 52.5133 77.25C63.1064 77.25 69.7176 72.0056 72.368 61.5125C68.3987 66.7612 63.7616 68.7225 58.4692 67.4135C55.4487 66.6667 53.2918 64.4952 50.9051 62.0918C47.0082 58.1778 42.5029 53.6458 32.6628 53.6458Z" stroke="#252525" stroke-width="5" stroke-linecap="round" stroke-linejoin="round"/>
</svg>
