<svg width="103" height="103" viewBox="0 0 103 103" fill="none" xmlns="http://www.w3.org/2000/svg">
<path d="M51.0966 38.625H21.3167C19.06 38.625 16.8959 39.5293 15.3002 41.139C13.7045 42.7487 12.8081 44.9319 12.8081 47.2083V64.375C12.8081 66.6514 13.7045 68.8346 15.3002 70.4443C16.8959 72.054 19.06 72.9583 21.3167 72.9583H34.0795" stroke="#252525" stroke-width="5" stroke-linecap="round" stroke-linejoin="round"/>
<path d="M51.0966 64.375H80.8765C83.1332 64.375 85.2973 63.4706 86.893 61.861C88.4887 60.2513 89.3851 58.0681 89.3851 55.7916V38.625C89.3851 36.3485 88.4887 34.1653 86.893 32.5556C85.2973 30.9459 83.1332 30.0416 80.8765 30.0416H68.1137" stroke="#252525" stroke-width="5" stroke-linecap="round" stroke-linejoin="round"/>
<path d="M34.0795 38.625V21.4583C34.0795 19.1819 34.9759 16.9987 36.5716 15.389C38.1672 13.7793 40.3314 12.875 42.588 12.875H59.6051C61.8617 12.875 64.0259 13.7793 65.6216 15.389C67.2172 16.9987 68.1137 19.1819 68.1137 21.4583V42.9167C68.1137 45.1931 67.2172 47.3763 65.6216 48.986C64.0259 50.5957 61.8617 51.5 59.6051 51.5H42.588C40.3314 51.5 38.1672 52.4043 36.5716 54.014C34.9759 55.6237 34.0795 57.8069 34.0795 60.0833V81.5417C34.0795 83.8181 34.9759 86.0013 36.5716 87.611C38.1672 89.2207 40.3314 90.125 42.588 90.125H59.6051C61.8617 90.125 64.0259 89.2207 65.6216 87.611C67.2172 86.0013 68.1137 83.8181 68.1137 81.5417V64.375" stroke="#252525" stroke-width="5" stroke-linecap="round" stroke-linejoin="round"/>
<path d="M46.8423 25.75V25.7941" stroke="#252525" stroke-width="5" stroke-linecap="round" stroke-linejoin="round"/>
<path d="M55.3509 77.25V77.2941" stroke="#252525" stroke-width="5" stroke-linecap="round" stroke-linejoin="round"/>
</svg>
