<svg width="103" height="102" viewBox="0 0 103 102" fill="none" xmlns="http://www.w3.org/2000/svg">
<path d="M27.2077 37.0217C16.1381 40.0945 8.88882 45.2072 8.88882 51C8.88882 60.3925 27.9352 68 51.4316 68C54.7201 68 57.9236 67.8512 60.9952 67.5665" stroke="#252525" stroke-width="5" stroke-linecap="round" stroke-linejoin="round"/>
<path d="M75.6469 64.9783C86.7208 61.9098 93.9743 56.7928 93.9743 51C93.9743 41.6075 74.928 34 51.4316 34C48.143 34 44.9396 34.1488 41.8595 34.4335" stroke="#252525" stroke-width="5" stroke-linecap="round" stroke-linejoin="round"/>
<path d="M27.2035 64.9697C24.3276 76.0835 25.1402 84.915 30.1602 87.805C38.2986 92.5012 54.4223 79.8277 66.1684 59.5C67.8148 56.6525 69.2868 53.8093 70.5758 51" stroke="#252525" stroke-width="5" stroke-linecap="round" stroke-linejoin="round"/>
<path d="M75.6554 37.0431C78.5356 25.9251 77.7273 17.0851 72.703 14.1951C64.5645 9.4988 48.4408 22.1723 36.6948 42.5001C35.0484 45.3476 33.5764 48.1951 32.2831 51.0001" stroke="#252525" stroke-width="5" stroke-linecap="round" stroke-linejoin="round"/>
<path d="M51.4316 23.052C43.2421 15.011 35.1803 11.2965 30.1602 14.195C22.0218 18.887 24.9445 39.1723 36.6948 59.5C38.3369 62.3475 40.0684 65.042 41.851 67.558" stroke="#252525" stroke-width="5" stroke-linecap="round" stroke-linejoin="round"/>
<path d="M51.4316 78.9395C59.6253 86.9847 67.6872 90.7035 72.703 87.805C80.8414 83.113 77.9187 62.8277 66.1684 42.5C64.573 39.7375 62.8501 37.0472 61.0122 34.4377" stroke="#252525" stroke-width="5" stroke-linecap="round" stroke-linejoin="round"/>
<path d="M49.3045 54.6805C49.7885 54.9639 50.3238 55.1489 50.8797 55.2249C51.4356 55.3008 52.001 55.2661 52.5434 55.1229C53.0859 54.9796 53.5945 54.7306 54.0402 54.3901C54.4859 54.0497 54.8598 53.6245 55.1403 53.1391C55.4209 52.6537 55.6025 52.1177 55.6748 51.5618C55.7471 51.006 55.7087 50.4414 55.5617 49.9005C55.4147 49.3596 55.162 48.8531 54.8183 48.4101C54.4745 47.9671 54.0465 47.5965 53.5587 47.3195C52.5821 46.7648 51.4255 46.6185 50.3414 46.9125C49.2572 47.2066 48.3335 47.9171 47.7718 48.889C47.21 49.8609 47.0559 51.0154 47.3431 52.1004C47.6302 53.1854 48.3353 54.1129 49.3045 54.6805Z" stroke="#252525" stroke-width="5" stroke-linecap="round" stroke-linejoin="round"/>
</svg>
