<svg width="104" height="102" viewBox="0 0 104 102" fill="none" xmlns="http://www.w3.org/2000/svg">
<path d="M28.0228 38.25C16.6943 41.14 9.30522 46.0913 9.30522 51.7438C9.30522 60.6985 28.229 68 51.6207 68C54.7997 68 57.0336 67.8342 59.9978 67.5877" stroke="#252525" stroke-width="5" stroke-linecap="round" stroke-linejoin="round"/>
<path d="M42.9729 67.575C41.1986 65.042 39.5103 62.7597 37.9036 59.925C26.0853 39.1 22.9192 18.4025 30.9011 13.7147C35.8415 10.7525 43.991 14.79 52.2694 23.2942" stroke="#252525" stroke-width="5" stroke-linecap="round" stroke-linejoin="round"/>
<path d="M28.3321 65.3948C25.3164 76.8188 25.9264 85.4377 30.7379 88.3235C38.3976 92.9135 53.8804 80.002 65.2905 59.4065C66.837 56.559 68.2246 53.7582 69.449 51" stroke="#252525" stroke-width="5" stroke-linecap="round" stroke-linejoin="round"/>
<path d="M52.2651 78.71C60.5477 87.21 68.6628 91.2476 73.6505 88.2853C81.5981 83.6018 78.4663 62.9043 66.6351 42.075C64.9855 39.1978 63.2972 36.958 61.5659 34.425" stroke="#252525" stroke-width="5" stroke-linecap="round" stroke-linejoin="round"/>
<path d="M76.5803 63.75C87.8014 60.8303 95.2249 55.8875 95.2249 50.252C95.2249 41.2845 76.2882 34 52.9309 34C49.7218 34 47.4922 34.1232 44.5323 34.3697" stroke="#252525" stroke-width="5" stroke-linecap="round" stroke-linejoin="round"/>
<path d="M35.0811 51C36.3055 48.195 37.6888 45.441 39.2396 42.5935C50.6111 22.0065 66.1024 9.06095 73.8051 13.6892C78.5737 16.575 79.2267 25.1897 76.2109 36.6095" stroke="#252525" stroke-width="5" stroke-linecap="round" stroke-linejoin="round"/>
<path d="M53.382 51.0638H53.3391C53.2961 51.6163 52.8236 52.0838 52.2221 52.0838C51.9345 52.0697 51.6631 51.9475 51.4635 51.7421C51.2639 51.5368 51.1511 51.2637 51.1481 50.9788C51.1481 50.3838 51.6207 49.9163 52.1792 49.9163H52.1362C52.6947 49.8738 53.2102 50.3838 53.2102 50.9363" stroke="#252525" stroke-width="5" stroke-linecap="round" stroke-linejoin="round"/>
</svg>
