<svg width="103" height="103" viewBox="0 0 103 103" fill="none" xmlns="http://www.w3.org/2000/svg">
<path d="M64.1944 51.5C64.1944 52.6383 64.6426 53.7299 65.4405 54.5347C66.2383 55.3395 67.3204 55.7917 68.4487 55.7917C69.577 55.7917 70.6591 55.3395 71.4569 54.5347C72.2547 53.7299 72.703 52.6383 72.703 51.5C72.703 50.3618 72.2547 49.2702 71.4569 48.4654C70.6591 47.6605 69.577 47.2084 68.4487 47.2084C67.3204 47.2084 66.2383 47.6605 65.4405 48.4654C64.6426 49.2702 64.1944 50.3618 64.1944 51.5Z" stroke="#252525" stroke-width="5" stroke-linecap="round" stroke-linejoin="round"/>
<path d="M47.1773 34.3333C47.1773 35.4715 47.6255 36.5631 48.4234 37.368C49.2212 38.1728 50.3033 38.625 51.4316 38.625C52.5599 38.625 53.642 38.1728 54.4398 37.368C55.2376 36.5631 55.6859 35.4715 55.6859 34.3333C55.6859 33.1951 55.2376 32.1035 54.4398 31.2986C53.642 30.4938 52.5599 30.0416 51.4316 30.0416C50.3033 30.0416 49.2212 30.4938 48.4234 31.2986C47.6255 32.1035 47.1773 33.1951 47.1773 34.3333Z" stroke="#252525" stroke-width="5" stroke-linecap="round" stroke-linejoin="round"/>
<path d="M47.1773 68.6667C47.1773 69.8049 47.6255 70.8965 48.4234 71.7013C49.2212 72.5062 50.3033 72.9583 51.4316 72.9583C52.5599 72.9583 53.642 72.5062 54.4398 71.7013C55.2376 70.8965 55.6859 69.8049 55.6859 68.6667C55.6859 67.5284 55.2376 66.4368 54.4398 65.632C53.642 64.8272 52.5599 64.375 51.4316 64.375C50.3033 64.375 49.2212 64.8272 48.4234 65.632C47.6255 66.4368 47.1773 67.5284 47.1773 68.6667Z" stroke="#252525" stroke-width="5" stroke-linecap="round" stroke-linejoin="round"/>
<path d="M51.4316 64.375V38.625" stroke="#252525" stroke-width="5" stroke-linecap="round" stroke-linejoin="round"/>
<path d="M64.1944 47.2083L55.6859 38.625" stroke="#252525" stroke-width="5" stroke-linecap="round" stroke-linejoin="round"/>
<path d="M47.1773 30.0416L39.0942 21.8875" stroke="#252525" stroke-width="5" stroke-linecap="round" stroke-linejoin="round"/>
<path d="M57.5833 11.1583L91.426 45.2942C93.0575 46.9401 93.974 49.1724 93.974 51.5C93.974 53.8276 93.0575 56.0599 91.426 57.7057L57.5833 91.8459C55.9517 93.4918 53.7389 94.4164 51.4316 94.4164C49.1243 94.4164 46.9114 93.4918 45.2799 91.8459L11.4371 57.7057C9.80565 56.0599 8.8891 53.8276 8.8891 51.5C8.8891 49.1724 9.80565 46.9401 11.4371 45.2942L45.2799 11.154C46.9114 9.50822 49.1243 8.58362 51.4316 8.58362C53.7389 8.58362 55.9517 9.51251 57.5833 11.1583Z" stroke="#252525" stroke-width="5" stroke-linecap="round" stroke-linejoin="round"/>
</svg>
