<svg width="103" height="103" viewBox="0 0 103 103" fill="none" xmlns="http://www.w3.org/2000/svg">
<path d="M76.5848 82.8634C71.143 86.3568 66.2419 88.2451 60.0833 90.1249C59.328 91.0261 57.3152 92.4595 56.1693 92.6484C49.7706 93.5798 43.3269 94.17 36.8654 94.4165C33.3806 94.4423 31.2433 93.4981 30.6554 92.039C30.1618 90.8416 32.0974 83.2239 31.9343 83.6101C31.2605 85.2925 29.4666 89.1335 27.6555 90.9918C25.1706 93.5668 20.4713 92.7085 17.6903 91.2107C14.6432 89.5541 17.3898 85.7173 16.2053 85.7731C15.0208 85.8332 12.875 79.3957 12.875 76.177C12.875 72.6235 15.5444 68.9927 18.1752 66.6881C17.7609 62.0991 18.4374 57.4772 20.1494 53.1994C22.3895 48.7706 25.6347 44.9273 29.6254 41.9767C29.6254 41.9767 23.8187 35.3933 25.9817 29.4793C27.3894 25.6083 27.9559 25.6383 28.4151 25.4666C30.046 24.9516 31.5352 24.0504 32.7626 22.8401C36.1101 19.0635 41.1742 16.6687 46.1354 17.1666C46.1354 17.1666 49.4872 6.7378 52.7145 8.85788C54.4956 11.6603 55.5942 14.0851 56.8646 17.1666C56.8646 17.1666 61.8 14.1624 62.2292 15.0207C64.4351 21.0205 64.3192 28.7712 63.1347 35.0628C61.7442 41.1055 59.5297 46.6117 55.7917 51.4999C55.3882 52.1866 59.9975 54.5255 63.1819 63.5681C66.126 71.8424 64.375 74.0311 64.375 75.1041C64.375 76.177 67.4478 75.7221 74.2287 71.4347C77.9583 68.6393 82.3927 66.9378 87.035 66.5207C90.1894 66.2375 91.2752 66.3705 92.2708 70.8124C93.2665 75.2543 90.7859 76.8465 89.0778 77.2756C89.0778 77.2756 80.1082 80.1725 76.5848 82.8634Z" stroke="#252525" stroke-width="5" stroke-linecap="round" stroke-linejoin="round"/>
</svg>
