<svg width="104" height="102" viewBox="0 0 104 102" fill="none" xmlns="http://www.w3.org/2000/svg">
<path d="M64.485 74.375C65.8598 75.735 67.7242 76.5 69.6703 76.5H72.003C74.9672 76.5 77.373 74.12 77.373 71.1875V70.125C77.373 68.4342 76.6941 66.8127 75.4856 65.6172C74.2771 64.4216 72.6381 63.75 70.929 63.75C69.22 63.75 67.5809 63.0784 66.3724 61.8828C65.164 60.6873 64.485 59.0658 64.485 57.375V56.3125C64.485 53.38 66.8908 51 69.855 51H72.1877C74.1338 51 75.9983 51.765 77.373 53.125" stroke="#252525" stroke-width="5" stroke-linecap="round" stroke-linejoin="round"/>
<path d="M38.7092 51H55.8931" stroke="#252525" stroke-width="5" stroke-linecap="round" stroke-linejoin="round"/>
<path d="M47.3011 51V76.5" stroke="#252525" stroke-width="5" stroke-linecap="round" stroke-linejoin="round"/>
<path d="M90.2609 80.75V21.25C90.2609 18.9957 89.3557 16.8337 87.7444 15.2396C86.1331 13.6455 83.9477 12.75 81.669 12.75H21.5252C19.2465 12.75 17.0611 13.6455 15.4498 15.2396C13.8384 16.8337 12.9332 18.9957 12.9332 21.25V80.75C12.9332 83.0043 13.8384 85.1663 15.4498 86.7604C17.0611 88.3545 19.2465 89.25 21.5252 89.25H81.669C83.9477 89.25 86.1331 88.3545 87.7444 86.7604C89.3557 85.1663 90.2609 83.0043 90.2609 80.75Z" stroke="#252525" stroke-width="5" stroke-linecap="round" stroke-linejoin="round"/>
</svg>
