<svg width="103" height="103" viewBox="0 0 103 103" fill="none" xmlns="http://www.w3.org/2000/svg">
<path d="M35.5608 30.0761C21.7588 30.0761 17.1667 43.9382 17.1667 55.4828C17.1667 69.3405 26.3638 90.1251 35.5608 90.1251C40.5606 89.9105 43.2815 87.8162 49.3542 87.8162C55.3883 87.8162 56.251 90.1251 63.1477 90.1251C70.0444 90.1251 81.5417 76.2673 81.5417 67.0316C81.413 66.9844 70.1731 65.169 70.0444 53.1695C69.9585 43.1485 81.1555 39.5263 81.5417 39.316C76.8381 32.4236 67.9715 30.2477 65.448 30.0761C58.8603 29.5611 52.4357 34.6982 49.3542 34.6982C46.2256 34.6982 40.6164 30.0761 35.5608 30.0761Z" stroke="#252525" stroke-width="5" stroke-linecap="round" stroke-linejoin="round"/>
<path d="M51.5 17.1666C53.7764 17.1666 55.9596 16.2623 57.5693 14.6526C59.179 13.0429 60.0833 10.8597 60.0833 8.58325C57.8069 8.58325 55.6237 9.48756 54.014 11.0973C52.4043 12.7069 51.5 14.8901 51.5 17.1666Z" stroke="#252525" stroke-width="5" stroke-linecap="round" stroke-linejoin="round"/>
</svg>
