<svg width="104" height="103" viewBox="0 0 104 103" fill="none" xmlns="http://www.w3.org/2000/svg">
<path d="M52.2651 51.5C52.2651 54.9147 53.6229 58.1895 56.0399 60.604C58.4568 63.0185 61.7349 64.375 65.153 64.375C68.5711 64.375 71.8492 63.0185 74.2662 60.604C76.6831 58.1895 78.041 54.9147 78.041 51.5C78.041 48.0853 76.6831 44.8105 74.2662 42.396C71.8492 39.9815 68.5711 38.625 65.153 38.625C61.7349 38.625 58.4568 39.9815 56.0399 42.396C53.6229 44.8105 52.2651 48.0853 52.2651 51.5Z" stroke="#252525" stroke-width="5" stroke-linecap="round" stroke-linejoin="round"/>
<path d="M26.4892 25.75C26.4892 22.3353 27.847 19.0605 30.264 16.646C32.6809 14.2315 35.959 12.875 39.3771 12.875H65.153C68.5711 12.875 71.8492 14.2315 74.2662 16.646C76.6831 19.0605 78.041 22.3353 78.041 25.75C78.041 29.1647 76.6831 32.4395 74.2662 34.854C71.8492 37.2685 68.5711 38.625 65.153 38.625H39.3771C35.959 38.625 32.6809 37.2685 30.264 34.854C27.847 32.4395 26.4892 29.1647 26.4892 25.75Z" stroke="#252525" stroke-width="5" stroke-linecap="round" stroke-linejoin="round"/>
<path d="M39.3771 38.625C35.959 38.625 32.6809 39.9815 30.264 42.396C27.847 44.8105 26.4892 48.0853 26.4892 51.5C26.4892 54.9147 27.847 58.1895 30.264 60.604C32.6809 63.0185 35.959 64.375 39.3771 64.375M39.3771 64.375H52.2651M39.3771 64.375C36.8281 64.375 34.3364 65.1301 32.217 66.5448C30.0975 67.9596 28.4457 69.9704 27.4702 72.3229C26.4947 74.6755 26.2395 77.2643 26.7368 79.7618C27.2341 82.2593 28.4615 84.5534 30.264 86.354C32.0664 88.1546 34.3628 89.3808 36.8628 89.8776C39.3628 90.3744 41.9542 90.1194 44.3091 89.1449C46.6641 88.1705 48.6769 86.5202 50.0931 84.403C51.5092 82.2857 52.2651 79.7964 52.2651 77.25V12.875" stroke="#252525" stroke-width="5" stroke-linecap="round" stroke-linejoin="round"/>
</svg>
