<svg width="103" height="103" viewBox="0 0 103 103" fill="none" xmlns="http://www.w3.org/2000/svg">
<path d="M64.2548 14.9479C64.9543 15.789 65.3148 16.922 66.0272 19.1837L81.6489 68.6667C75.759 65.722 69.4646 63.6683 62.9715 62.5725L52.8003 29.428C52.7123 29.1609 52.542 28.9286 52.3138 28.7643C52.0855 28.6001 51.8111 28.5124 51.53 28.5138C51.249 28.5136 50.9752 28.6024 50.7477 28.7673C50.5203 28.9323 50.3509 29.1651 50.2639 29.4323L40.2128 62.5553C33.6928 63.6464 27.3718 65.7032 21.4583 68.6581L37.1529 19.1752C37.8739 16.9135 38.2301 15.7848 38.9339 14.9436C39.5519 14.2054 40.3545 13.6303 41.2686 13.2784C42.3072 12.875 43.5303 12.875 45.9851 12.875H57.195C59.6498 12.875 60.8772 12.875 61.9158 13.2784C62.8299 13.6303 63.6325 14.2054 64.2548 14.9479Z" stroke="#252525" stroke-width="5" stroke-linecap="round" stroke-linejoin="round"/>
<path d="M38.625 77.25C38.625 83.6875 47.2083 90.125 51.5 94.4167C55.7917 90.125 64.375 81.5417 64.375 77.25C55.7917 81.5417 47.2083 81.5417 38.625 77.25Z" stroke="#252525" stroke-width="5" stroke-linecap="round" stroke-linejoin="round"/>
</svg>
