<svg width="103" height="103" viewBox="0 0 103 103" fill="none" xmlns="http://www.w3.org/2000/svg">
<path d="M21.6517 86.9062C21.6517 88.683 23.0811 90.125 24.8424 90.125H30.1602C31.2885 90.125 32.3706 89.6728 33.1684 88.868C33.9663 88.0632 34.4145 86.9716 34.4145 85.8333V81.5417C34.4145 80.4034 33.9663 79.3118 33.1684 78.507C32.3706 77.7022 31.2885 77.25 30.1602 77.25H25.9059C24.7776 77.25 23.6955 76.7978 22.8977 75.993C22.0999 75.1882 21.6517 74.0966 21.6517 72.9583V68.6667C21.6517 67.5284 22.0999 66.4368 22.8977 65.632C23.6955 64.8272 24.7776 64.375 25.9059 64.375H31.2238C32.07 64.375 32.8816 64.7141 33.4799 65.3178C34.0783 65.9214 34.4145 66.7401 34.4145 67.5937" stroke="#252525" stroke-width="5" stroke-linecap="round" stroke-linejoin="round"/>
<path d="M76.9572 64.375V90.125H85.4658" stroke="#252525" stroke-width="5" stroke-linecap="round" stroke-linejoin="round"/>
<path d="M55.6859 64.375C57.9425 64.375 60.1066 65.2793 61.7023 66.889C63.298 68.4987 64.1944 70.6819 64.1944 72.9583V81.5417C64.1944 83.8181 63.298 86.0013 61.7023 87.611C60.1066 89.2207 57.9425 90.125 55.6859 90.125C53.4292 90.125 51.2651 89.2207 49.6694 87.611C48.0737 86.0013 47.1773 83.8181 47.1773 81.5417V72.9583C47.1773 70.6819 48.0737 68.4987 49.6694 66.889C51.2651 65.2793 53.4292 64.375 55.6859 64.375Z" stroke="#252525" stroke-width="5" stroke-linecap="round" stroke-linejoin="round"/>
<path d="M59.9401 85.8334L66.3216 92.2709" stroke="#252525" stroke-width="5" stroke-linecap="round" stroke-linejoin="round"/>
</svg>
